<svg id="Layer_1" data-name="Layer 1" xmlns="http://www.w3.org/2000/svg" xmlns:xlink="http://www.w3.org/1999/xlink" viewBox="0 0 290.16 200.07"><defs><style>.cls-1,.cls-11,.cls-12,.cls-14,.cls-2{fill:none;}.cls-1{stroke:#000;stroke-width:3px;}.cls-1,.cls-10,.cls-11,.cls-12,.cls-14,.cls-9{stroke-miterlimit:10;}.cls-3{clip-path:url(#clip-path);}.cls-4{clip-path:url(#clip-path-2);}.cls-5,.cls-9{fill:#ff931f;}.cls-10,.cls-11,.cls-5,.cls-6,.cls-9{stroke:#231f20;}.cls-5,.cls-6{stroke-miterlimit:10;}.cls-10,.cls-6{fill:#d7263d;}.cls-7{clip-path:url(#clip-path-4);}.cls-8{clip-path:url(#clip-path-5);}.cls-12{stroke:#300000;}.cls-12,.cls-14{stroke-width:12px;}.cls-13{fill:#300000;}.cls-14{stroke:#000030;}.cls-15{fill:#000030;}</style><clipPath id="clip-path" transform="translate(77.12 28.84)"><circle class="cls-1" cx="70.45" cy="67.35" r="63.05"/></clipPath><clipPath id="clip-path-2" transform="translate(77.12 28.84)"><rect class="cls-2" x="7.4" y="4.3" width="126.1" height="126.1"/></clipPath><clipPath id="clip-path-4" transform="translate(77.12 28.84)"><polygon class="cls-2" points="133.5 128 7.2 13.5 -49.8 78.5 76.5 193.1 133.5 128"/></clipPath><clipPath id="clip-path-5" transform="translate(77.12 28.84)"><rect class="cls-2" x="7.4" y="4.3" width="124" height="126.1"/></clipPath></defs><g class="cls-3"><g class="cls-4"><g class="cls-4"><rect class="cls-5" x="-64.58" y="16.51" width="174" height="109.3" transform="translate(24.94 100.09) rotate(-72.59)"/><rect class="cls-6" x="57.36" y="19.29" width="158.4" height="109.3" transform="translate(102.27 210.96) rotate(-72.59)"/></g><g class="cls-7"><g class="cls-8"><polygon class="cls-9" points="103.22 199.44 0.62 166.74 51.82 0.64 154.42 33.34 103.22 199.44"/><polygon class="cls-10" points="217.72 194.74 115.22 162.04 161.82 10.94 264.32 43.64 217.72 194.74"/></g></g><line class="cls-11" x1="136.62" y1="89.74" x2="155.42" y2="106.74"/></g><g class="cls-4"><circle class="cls-12" cx="181.52" cy="136.44" r="34.6"/><rect class="cls-13" x="80.89" y="62.61" width="16.6" height="12.6" transform="translate(58.73 64.14) rotate(-20.34)"/><rect class="cls-13" x="109.8" y="140.38" width="16.6" height="12.6" transform="translate(33.5 79.04) rotate(-20.34)"/><rect class="cls-13" x="136.9" y="84.91" width="12.6" height="16.6" transform="translate(53.65 84.43) rotate(-20.34)"/><rect class="cls-13" x="59.19" y="113.7" width="12.6" height="16.6" transform="translate(38.8 59.21) rotate(-20.34)"/><rect class="cls-13" x="57.87" y="85.25" width="16.6" height="12.6" transform="translate(32.85 144.09) rotate(-66.25)"/><rect class="cls-13" x="133.73" y="118.74" width="16.6" height="12.6" transform="translate(47.5 233.53) rotate(-66.25)"/><rect class="cls-13" x="114.83" y="61.44" width="12.6" height="16.6" transform="translate(85.64 181.36) rotate(-66.25)"/><rect class="cls-13" x="81.44" y="137.34" width="12.6" height="16.6" transform="translate(-3.78 196.14) rotate(-66.25)"/><circle class="cls-14" cx="112.82" cy="54.64" r="34.6"/><rect class="cls-15" x="6" y="-16.19" width="16.6" height="12.6" transform="translate(83.95 34.65) rotate(-29.88)"/><rect class="cls-15" x="47.3" y="55.71" width="16.6" height="12.6" transform="translate(53.62 64.78) rotate(-29.88)"/><rect class="cls-15" x="65.3" y="-3.2" width="12.6" height="16.6" transform="translate(84.1 65.19) rotate(-29.88)"/><rect class="cls-15" x="-6.6" y="38.1" width="12.6" height="16.6" transform="translate(53.97 34.86) rotate(-29.88)"/><rect class="cls-15" x="-12.98" y="10.01" width="16.6" height="12.6" transform="translate(57.78 36.6) rotate(-75.79)"/><rect class="cls-15" x="67.36" y="30.33" width="16.6" height="12.6" transform="translate(98.71 129.83) rotate(-75.79)"/><rect class="cls-15" x="39.64" y="-22.7" width="12.6" height="16.6" transform="translate(125.75 62.51) rotate(-75.79)"/><rect class="cls-15" x="19.32" y="57.65" width="12.6" height="16.6" transform="translate(32.52 103.44) rotate(-75.79)"/></g></g><circle class="cls-1" cx="147.57" cy="96.19" r="63.05"/></svg>