<?xml version="1.0" encoding="utf-8"?>
<!-- Generator: Adobe Illustrator 25.3.1, SVG Export Plug-In . SVG Version: 6.00 Build 0)  -->
<svg version="1.1" id="Layer_1" xmlns="http://www.w3.org/2000/svg" xmlns:xlink="http://www.w3.org/1999/xlink" x="0px" y="0px"
	 viewBox="0 0 290.2 200.1" style="enable-background:new 0 0 290.2 200.1;" xml:space="preserve">
<style type="text/css">
	.st0{clip-path:url(#SVGID_2_);}
	.st1{clip-path:url(#SVGID_4_);}
	.st2{clip-path:url(#SVGID_6_);}
	.st3{fill:#FF931F;stroke:#231F20;stroke-miterlimit:10;}
	.st4{fill:#D7263D;stroke:#231F20;stroke-miterlimit:10;}
	.st5{clip-path:url(#SVGID_8_);fill:#D7263D;stroke:#231F20;stroke-miterlimit:10;}
	.st6{fill:none;stroke:#231F20;stroke-miterlimit:10;}
	.st7{clip-path:url(#SVGID_10_);}
	.st8{fill:none;stroke:#300000;stroke-width:12;stroke-miterlimit:10;}
	.st9{fill:#300000;}
	.st10{fill:none;stroke:#000030;stroke-width:12;stroke-miterlimit:10;}
	.st11{fill:#000030;}
	.st12{fill:none;stroke:#000000;stroke-width:3;stroke-miterlimit:10;}
</style>
<g>
	<defs>
		<circle id="SVGID_1_" cx="147.6" cy="96.2" r="63"/>
	</defs>
	<clipPath id="SVGID_2_">
		<use xlink:href="#SVGID_1_"  style="overflow:visible;"/>
	</clipPath>
	<g class="st0">
		<g>
			<defs>
				<rect id="SVGID_3_" x="84.5" y="33.1" width="126.1" height="126.1"/>
			</defs>
			<clipPath id="SVGID_4_">
				<use xlink:href="#SVGID_3_"  style="overflow:visible;"/>
			</clipPath>
			<g class="st1">
				<g>
					<defs>
						<rect id="SVGID_5_" x="84.5" y="33.1" width="126.1" height="126.1"/>
					</defs>
					<clipPath id="SVGID_6_">
						<use xlink:href="#SVGID_5_"  style="overflow:visible;"/>
					</clipPath>
					<g class="st2">
						<polygon class="st3" points="67.4,137 105.2,13.9 181.1,38.1 143.2,161.3 						"/>
						
							<rect x="137.1" y="66.2" transform="matrix(0.2992 -0.9542 0.9542 0.2992 35.46 264.8184)" class="st4" width="121.9" height="84.1"/>
					</g>
				</g>
				<g>
					<defs>
						<polygon id="SVGID_7_" points="210.6,156.8 84.3,42.3 27.3,107.3 153.6,221.9 						"/>
					</defs>
					<clipPath id="SVGID_8_">
						<use xlink:href="#SVGID_7_"  style="overflow:visible;"/>
					</clipPath>
					<polygon class="st5" points="217.2,194.2 114.7,161.5 161.3,10.4 263.8,43.1 					"/>
				</g>
				<line class="st6" x1="136.6" y1="89.7" x2="155.4" y2="106.7"/>
			</g>
		</g>
		<g>
			<defs>
				<rect id="SVGID_9_" x="84.5" y="33.1" width="126.1" height="126.1"/>
			</defs>
			<clipPath id="SVGID_10_">
				<use xlink:href="#SVGID_9_"  style="overflow:visible;"/>
			</clipPath>
			<g class="st7">
				<circle class="st8" cx="181.5" cy="136.4" r="34.6"/>
				
					<rect x="158" y="91.5" transform="matrix(0.9376 -0.3476 0.3476 0.9376 -23.6074 63.9033)" class="st9" width="16.6" height="12.6"/>
				
					<rect x="136.3" y="142.5" transform="matrix(0.9376 -0.3476 0.3476 0.9376 -43.5379 58.9761)" class="st9" width="12.6" height="16.6"/>
				
					<rect x="135" y="114.1" transform="matrix(0.4027 -0.9153 0.9153 0.4027 -24.6149 203.0674)" class="st9" width="16.6" height="12.6"/>
				
					<rect x="192" y="90.3" transform="matrix(0.4027 -0.9153 0.9153 0.4027 28.1829 240.3431)" class="st9" width="12.6" height="16.6"/>
				
					<rect x="158.6" y="166.2" transform="matrix(0.4027 -0.9153 0.9153 0.4027 -61.2446 255.1136)" class="st9" width="12.6" height="16.6"/>
				<circle class="st10" cx="112.8" cy="54.6" r="34.6"/>
				
					<rect x="124.4" y="84.5" transform="matrix(0.8671 -0.4982 0.4982 0.8671 -27.6165 78.1963)" class="st11" width="16.6" height="12.6"/>
				
					<rect x="142.4" y="25.6" transform="matrix(0.8671 -0.4982 0.4982 0.8671 2.8602 78.6035)" class="st11" width="12.6" height="16.6"/>
				
					<rect x="144.5" y="59.2" transform="matrix(0.2455 -0.9694 0.9694 0.2455 51.8117 197.5207)" class="st11" width="16.6" height="12.6"/>
				
					<rect x="96.4" y="86.5" transform="matrix(0.2455 -0.9694 0.9694 0.2455 -14.372 171.1212)" class="st11" width="12.6" height="16.6"/>
			</g>
		</g>
	</g>
</g>
<circle class="st12" cx="147.6" cy="96.2" r="63.1"/>
</svg>
